0
SECTION
2
HEADER
9
$INSUNITS
70
4
9
$ACADVER
1
AC1014
9
$HANDSEED
5
FFFF
0
ENDSEC
0
SECTION
2
TABLES
0
TABLE
2
VPORT
5
8
100
AcDbSymbolTable
0
ENDTAB
0
TABLE
2
LTYPE
5
5
100
AcDbSymbolTable
0
LTYPE
5
14
100
AcDbSymbolTableRecord
100
AcDbLinetypeTableRecord
2
BYBLOCK
70
0
0
LTYPE
5
15
100
AcDbSymbolTableRecord
100
AcDbLinetypeTableRecord
2
BYLAYER
70
0
0
ENDTAB
0
TABLE
2
LAYER
5
2
100
AcDbSymbolTable
70
2
0
LAYER
5
50
100
AcDbSymbolTableRecord
100
AcDbLayerTableRecord
2
0
70
0
6
CONTINUOUS
0
ENDTAB
0
TABLE
2
STYLE
5
3
100
AcDbSymbolTable
70
1
0
STYLE
5
11
100
AcDbSymbolTableRecord
100
AcDbTextStyleTableRecord
2
STANDARD
70
0
0
ENDTAB
0
TABLE
2
VIEW
5
6
100
AcDbSymbolTable
70
0
0
ENDTAB
0
TABLE
2
UCS
5
7
100
AcDbSymbolTable
70
0
0
ENDTAB
0
TABLE
2
APPID
5
9
100
AcDbSymbolTable
70
2
0
APPID
5
12
100
AcDbSymbolTableRecord
100
AcDbRegAppTableRecord
2
ACAD
70
0
0
ENDTAB
0
TABLE
2
DIMSTYLE
5
A
100
AcDbSymbolTable
70
1
0
ENDTAB
0
TABLE
2
BLOCK_RECORD
5
1
100
AcDbSymbolTable
70
1
0
BLOCK_RECORD
5
1F
100
AcDbSymbolTableRecord
100
AcDbBlockTableRecord
2
*MODEL_SPACE
0
BLOCK_RECORD
5
1B
100
AcDbSymbolTableRecord
100
AcDbBlockTableRecord
2
*PAPER_SPACE
0
ENDTAB
0
ENDSEC
0
SECTION
2
BLOCKS
0
BLOCK
5
20
100
AcDbEntity
100
AcDbBlockBegin
2
*MODEL_SPACE
0
ENDBLK
5
21
100
AcDbEntity
100
AcDbBlockEnd
0
BLOCK
5
1C
100
AcDbEntity
100
AcDbBlockBegin
2
*PAPER_SPACE
0
ENDBLK
5
1D
100
AcDbEntity
100
AcDbBlockEnd
0
ENDSEC
0
SECTION
2
ENTITIES
0
CIRCLE
5
100
100
AcDbEntity
8
0
100
AcDbCircle
10
-5.6014901443995502
20
-331.72941453623002
30
0
40
1.5999999999999979
210
0
220
-0
230
1
0
CIRCLE
5
101
100
AcDbEntity
8
0
100
AcDbCircle
10
-5.6014901443995901
20
-362.729414536229
30
0
40
1.6000000000000014
210
0
220
-0
230
1
0
CIRCLE
5
102
100
AcDbEntity
8
0
100
AcDbCircle
10
-36.601490144399534
20
-331.72941453623002
30
0
40
1.5999999999999659
210
0
220
-0
230
1
0
CIRCLE
5
103
100
AcDbEntity
8
0
100
AcDbCircle
10
-36.601490144398404
20
-362.72941453623002
30
0
40
1.5999999999999659
210
-0
220
0
230
1
0
CIRCLE
5
104
100
AcDbEntity
8
0
100
AcDbCircle
10
-14.101490144382032
20
-354.22941453621604
30
0
40
1.6000000000000003
210
0
220
0
230
1
0
CIRCLE
5
105
100
AcDbEntity
8
0
100
AcDbCircle
10
-28.101490144382026
20
-340.22941453621598
30
0
40
1.6000000000000003
210
0
220
0
230
1
0
CIRCLE
5
106
100
AcDbEntity
8
0
100
AcDbCircle
10
-28.101490144382026
20
-354.22941453621604
30
0
40
1.6000000000000003
210
0
220
0
230
1
0
CIRCLE
5
107
100
AcDbEntity
8
0
100
AcDbCircle
10
-14.101490144382032
20
-340.22941453621598
30
0
40
1.6000000000000003
210
0
220
0
230
1
0
CIRCLE
5
108
100
AcDbEntity
8
0
100
AcDbCircle
10
-21.101490144382069
20
-347.22941453621604
30
0
40
5.0000000000000089
210
0
220
-0
230
1
0
LWPOLYLINE
5
109
100
AcDbEntity
8
0
100
AcDbPolyline
90
8
70
1
43
0.0
10
-47.861490144402708
20
-330.97301144605404
10
-47.86149014440268
20
-324.97301144604501
42
-0.41421356237306639
10
-45.861490144402701
20
-322.97301144604495
10
-44.1014901593038
20
-322.97301144604501
42
-0.41421356237310025
10
-42.101490159303843
20
-324.97301144604501
10
-42.101490159303907
20
-330.97301144605404
42
-0.41421356237225609
10
-44.101490159298208
20
-332.97301144605404
10
-45.861490144402701
20
-332.97301144605399
42
-0.41421356237309892
0
CIRCLE
5
110
100
AcDbEntity
8
0
100
AcDbCircle
10
20.249621459813699
20
-358.02941453622202
30
0
40
1.30000000000001
210
0
220
0
230
1
0
CIRCLE
5
111
100
AcDbEntity
8
0
100
AcDbCircle
10
-53.9054924160897
20
-350.99735480502801
30
0
40
1.3
210
0
220
0
230
1
0
CIRCLE
5
112
100
AcDbEntity
8
0
100
AcDbCircle
10
-49.173259369057298
20
-340.52983878463402
30
0
40
1.5249999999999999
210
0
220
0
230
1
0
CIRCLE
5
113
100
AcDbEntity
8
0
100
AcDbCircle
10
-49.173259369055003
20
-362.52983878463402
30
0
40
1.5249999999999999
210
0
220
0
230
1
0
CIRCLE
5
114
100
AcDbEntity
8
0
100
AcDbCircle
10
28.2496214598136
20
-358.02941453622202
30
0
40
2.5499999999999998
210
0
220
0
230
1
0
CIRCLE
5
115
100
AcDbEntity
8
0
100
AcDbCircle
10
12.249621459813699
20
-358.02941453622202
30
0
40
2.5499999999999998
210
0
220
0
230
1
0
CIRCLE
5
116
100
AcDbEntity
8
0
100
AcDbCircle
10
-67.999992370605497
20
-335.75040459634403
30
0
40
2.5499999999999998
210
0
220
0
230
1
0
CIRCLE
5
117
100
AcDbEntity
8
0
100
AcDbCircle
10
-67.999992370605696
20
-321.25040459634408
30
0
40
1.6000000000000103
210
0
220
0
230
1
0
LWPOLYLINE
5
118
100
AcDbEntity
8
0
100
AcDbPolyline
90
34
70
1
43
0.0
10
38.000007629394432
20
-351.02941453622202
42
0.4142135623730937
10
35.000007629394503
20
-348.02941453622219
10
24.938888624267808
20
-348.0294145362231
42
-0.41421356237090073
10
23.938888624271243
20
-347.02941453621906
10
23.938888624271204
20
-346.02941453622202
10
21.398509855600505
20
-346.02941453622202
10
21.398509855600505
20
-340.02941453622208
10
23.9385098556005
20
-340.02941453622208
10
23.9385098556005
20
-337.69805488409901
42
0.30352094078700231
10
23.320603532344016
20
-336.77393128728284
10
1.1445047873604519
20
-327.65364834376697
42
0.11794422755166356
10
-5.6435383246114865
20
-326.0298387846218
10
-29.026114145178195
20
-326.02983878462157
42
-0.16112973134986611
10
-40.954398890283052
20
-322.08337493836973
42
0.15857189234807337
10
-43.065575590212291
20
-321.37319059705771
42
-0.051106670025491081
10
-54.447890998427937
20
-318.22796982701504
42
0.09319899505924184
10
-60.976393405323492
20
-317.00040655110791
10
-74.999992370605696
20
-317.00040473135402
42
0.41421356237310802
10
-77.999992370325927
20
-320.00040473163403
10
-77.999992370009011
20
-323.40040443333004
10
-77.999992370605696
20
-339.00040473135402
42
0.41421356237310375
10
-74.999992370605696
20
-342.00040473135402
10
-59.673259369056098
20
-342.00040473135414
42
-0.4142135623730846
10
-56.673259369056126
20
-345.00040473135408
10
-56.6732593690556
20
-352.76512175799502
42
0.41421356237291296
10
-55.673259369057106
20
-353.76512175799439
42
-0.4142135623725175
10
-54.673259369055529
20
-354.765121757994
10
-54.673259369055451
20
-355.76512175799303
42
-0.41421356237492901
10
-55.673259369062507
20
-356.76512175799394
42
0.41421356237834206
10
-56.673259369055351
20
-357.76512175799297
10
-56.673259369055003
20
-362.52983878463402
42
0.41421356237309503
10
-49.173259369055003
20
-370.02983878463408
10
33.00000762939451
20
-370.02983878463402
42
0.41421356237310542
10
38.000007629394545
20
-365.02983878463408
0
ENDSEC
0
SECTION
2
OBJECTS
0
DICTIONARY
5
C
100
AcDbDictionary
3
ACAD_GROUP
350
D
3
ACAD_MLINESTYLE
350
17
0
DICTIONARY
5
D
100
AcDbDictionary
0
DICTIONARY
5
1A
330
C
100
AcDbDictionary
0
DICTIONARY
5
17
100
AcDbDictionary
0
ENDSEC
0
EOF
